<mxfile host="app.diagrams.net" modified="2020-09-12T08:39:14.722Z" agent="5.0 (Macintosh; Intel Mac OS X 10_15_4) AppleWebKit/537.36 (KHTML, like Gecko) Chrome/85.0.4183.83 Safari/537.36" etag="uMV7ZNcL_gXFosAxN_dA" version="13.6.10" type="github">
  <diagram id="nD-pZbgo0t0JjnvU5NWl" name="Page-1">
    <mxGraphModel dx="968" dy="644" grid="1" gridSize="10" guides="1" tooltips="1" connect="1" arrows="1" fold="1" page="1" pageScale="1" pageWidth="827" pageHeight="1169" math="0" shadow="0">
      <root>
        <mxCell id="0" />
        <mxCell id="1" parent="0" />
        <mxCell id="Y8JO3z_cfnR2BYG4XrXh-1" value="&lt;font style=&quot;font-size: 20px&quot;&gt;原核生物&lt;/font&gt;" style="text;html=1;align=center;verticalAlign=middle;resizable=0;points=[];autosize=1;" vertex="1" parent="1">
          <mxGeometry x="270" y="100" width="100" height="20" as="geometry" />
        </mxCell>
        <mxCell id="Y8JO3z_cfnR2BYG4XrXh-2" value="&lt;span style=&quot;font-family: &amp;#34;arial&amp;#34; ; font-size: 13px&quot;&gt;核を持たない単細胞生物&lt;/span&gt;" style="text;html=1;align=center;verticalAlign=middle;resizable=0;points=[];autosize=1;" vertex="1" parent="1">
          <mxGeometry x="240" y="120" width="160" height="20" as="geometry" />
        </mxCell>
        <mxCell id="Y8JO3z_cfnR2BYG4XrXh-5" value="&lt;font style=&quot;font-size: 20px&quot;&gt;原核生物&lt;/font&gt;" style="text;html=1;align=center;verticalAlign=middle;resizable=0;points=[];autosize=1;" vertex="1" parent="1">
          <mxGeometry x="100" y="190" width="100" height="20" as="geometry" />
        </mxCell>
        <mxCell id="Y8JO3z_cfnR2BYG4XrXh-6" value="&lt;span style=&quot;font-family: &amp;#34;arial&amp;#34; ; font-size: 13px&quot;&gt;二酸化炭素から&lt;br&gt;酸素と糖を生成&lt;/span&gt;" style="text;html=1;align=center;verticalAlign=top;resizable=0;points=[];autosize=1;" vertex="1" parent="1">
          <mxGeometry x="95" y="210" width="110" height="30" as="geometry" />
        </mxCell>
        <mxCell id="Y8JO3z_cfnR2BYG4XrXh-7" value="&lt;font style=&quot;font-size: 20px&quot;&gt;真核生物&lt;/font&gt;" style="text;html=1;align=center;verticalAlign=middle;resizable=0;points=[];autosize=1;" vertex="1" parent="1">
          <mxGeometry x="270" y="190" width="100" height="20" as="geometry" />
        </mxCell>
        <mxCell id="Y8JO3z_cfnR2BYG4XrXh-8" value="&lt;span style=&quot;font-family: &amp;#34;arial&amp;#34; ; font-size: 13px&quot;&gt;DNAを守る核を持つ&lt;/span&gt;" style="text;html=1;align=center;verticalAlign=top;resizable=0;points=[];autosize=1;" vertex="1" parent="1">
          <mxGeometry x="255" y="210" width="130" height="20" as="geometry" />
        </mxCell>
        <mxCell id="Y8JO3z_cfnR2BYG4XrXh-10" value="&lt;font style=&quot;font-size: 20px&quot;&gt;原核生物&lt;/font&gt;" style="text;html=1;align=center;verticalAlign=middle;resizable=0;points=[];autosize=1;" vertex="1" parent="1">
          <mxGeometry x="440" y="190" width="100" height="20" as="geometry" />
        </mxCell>
        <mxCell id="Y8JO3z_cfnR2BYG4XrXh-11" value="&lt;font face=&quot;arial&quot;&gt;&lt;span style=&quot;font-size: 13px&quot;&gt;酸素と糖から&lt;br&gt;二酸化炭素と水と&lt;br&gt;ATPエネルギーを生成&lt;br&gt;&lt;/span&gt;&lt;/font&gt;" style="text;html=1;align=center;verticalAlign=top;resizable=0;points=[];autosize=1;" vertex="1" parent="1">
          <mxGeometry x="420" y="210" width="140" height="50" as="geometry" />
        </mxCell>
      </root>
    </mxGraphModel>
  </diagram>
</mxfile>
